HIERARCHY
ROOT Hips
{
	OFFSET 0.000000 0.000000 0.000000
	CHANNELS 6 Xposition Yposition Zposition Xrotation Yrotation Zrotation
	JOINT LeftUpLeg_virtual
	{
		OFFSET 0.000000 0.000000 0.000000
		CHANNELS 3 Xrotation Yrotation Zrotation
		JOINT LeftUpLeg
		{
			OFFSET 13.026900 -6.336304 -1.092800
			CHANNELS 3 Xrotation Yrotation Zrotation
			JOINT LeftLeg
			{
				OFFSET 0.524474 -46.096886 9.782700
				CHANNELS 3 Xrotation Yrotation Zrotation
				JOINT LeftFoot
				{
					OFFSET -0.524474 -53.427422 -12.948200
					CHANNELS 3 Xrotation Yrotation Zrotation
					JOINT LeftToeBase
					{
						OFFSET 0.192200 -14.009700 16.364100
						CHANNELS 3 Xrotation Yrotation Zrotation
						JOINT LeftToe_End
						{
							OFFSET -1.784700 -0.561700 9.474800
							CHANNELS 3 Xrotation Yrotation Zrotation
							End Site
							{
								OFFSET 0 0 0
							}
						}
					}
				}
			}
		}
	}
	JOINT RightUpLeg_virtual
	{
		OFFSET 0.000000 0.000000 0.000000
		CHANNELS 3 Xrotation Yrotation Zrotation
		JOINT RightUpLeg
		{
			OFFSET -12.883000 -6.336304 -1.092800
			CHANNELS 3 Xrotation Yrotation Zrotation
			JOINT RightLeg
			{
				OFFSET -0.524587 -46.096825 9.782800
				CHANNELS 3 Xrotation Yrotation Zrotation
				JOINT RightFoot
				{
					OFFSET 0.524587 -53.427383 -12.948300
					CHANNELS 3 Xrotation Yrotation Zrotation
					JOINT RightToeBase
					{
						OFFSET -0.192200 -14.009700 16.364100
						CHANNELS 3 Xrotation Yrotation Zrotation
						JOINT RightToe_End
						{
							OFFSET 1.784700 -0.561700 9.474800
							CHANNELS 3 Xrotation Yrotation Zrotation
							End Site
							{
								OFFSET 0 0 0
							}
						}
					}
				}
			}
		}
	}
	JOINT Spine_virtual
	{
		OFFSET 0.000000 0.000000 0.000000
		CHANNELS 3 Xrotation Yrotation Zrotation
		JOINT Spine
		{
			OFFSET 0.072000 7.257294 -0.789700
			CHANNELS 3 Xrotation Yrotation Zrotation
			JOINT Spine1
			{
				OFFSET 0.000000 12.508769 -0.658067
				CHANNELS 3 Xrotation Yrotation Zrotation
				JOINT Spine1_split
				{
					OFFSET 0.000000 12.508769 -0.658067
					CHANNELS 3 Xrotation Yrotation Zrotation
					JOINT Spine2
					{
						OFFSET 0.000000 12.508769 -0.658067
						CHANNELS 3 Xrotation Yrotation Zrotation
						JOINT Neck_virtual
						{
							OFFSET 0.000000 0.000000 0.000000
							CHANNELS 3 Xrotation Yrotation Zrotation
							JOINT Neck
							{
								OFFSET 0.000000 14.033295 7.520400
								CHANNELS 3 Xrotation Yrotation Zrotation
								JOINT Head
								{
									OFFSET 0.000000 8.198502 5.703100
									CHANNELS 3 Xrotation Yrotation Zrotation
									JOINT HeadTop_End
									{
										OFFSET 0.000000 17.760803 13.332701
										CHANNELS 3 Xrotation Yrotation Zrotation
										End Site
										{
											OFFSET 0 0 0
										}
									}
								}
							}
						}
						JOINT LeftShoulder_virtual
						{
							OFFSET 0.000000 0.000000 0.000000
							CHANNELS 3 Xrotation Yrotation Zrotation
							JOINT LeftShoulder
							{
								OFFSET 6.292450 5.785301 -0.669000
								CHANNELS 3 Xrotation Yrotation Zrotation
								JOINT LeftShoulder_split
								{
									OFFSET 6.292450 5.785301 -0.669000
									CHANNELS 3 Xrotation Yrotation Zrotation
									JOINT LeftArm
									{
										OFFSET 13.907140 -6.093903 1.965100
										CHANNELS 3 Xrotation Yrotation Zrotation
										JOINT LeftForeArm
										{
											OFFSET 34.140198 0.000000 0.000000
											CHANNELS 3 Xrotation Yrotation Zrotation
											JOINT LeftHand
											{
												OFFSET 40.960209 0.000000 0.000000
												CHANNELS 3 Xrotation Yrotation Zrotation
												End Site
												{
													OFFSET 0 0 0
												}
											}
										}
									}
								}
							}
						}
						JOINT RightShoulder_virtual
						{
							OFFSET 0.000000 0.000000 0.000000
							CHANNELS 3 Xrotation Yrotation Zrotation
							JOINT RightShoulder
							{
								OFFSET -6.292450 5.785301 -0.669000
								CHANNELS 3 Xrotation Yrotation Zrotation
								JOINT RightShoulder_split
								{
									OFFSET -6.292450 5.785301 -0.669000
									CHANNELS 3 Xrotation Yrotation Zrotation
									JOINT RightArm
									{
										OFFSET -13.907140 -6.093903 1.965100
										CHANNELS 3 Xrotation Yrotation Zrotation
										JOINT RightForeArm
										{
											OFFSET -34.140198 0.000000 0.000000
											CHANNELS 3 Xrotation Yrotation Zrotation
											JOINT RightHand
											{
												OFFSET -40.960209 0.000000 0.000000
												CHANNELS 3 Xrotation Yrotation Zrotation
												End Site
												{
													OFFSET 0 0 0
												}
											}
										}
									}
								}
							}
						}
					}
				}
			}
		}
	}
}
MOTION
Frames: 6
Frame Time: 0.03333333
-1.063049 95.106735 5.484299 0.000000 0.000000 0.000000 14.626877 -47.733641 12.234901 -66.352242 26.836732 37.990786 39.072128 -14.072229 3.574014 6.907488 0.257258 -6.595146 -0.362963 -3.951995 -0.800726 0.000000 0.000000 0.000000 13.126923 -47.909365 12.528963 -31.129414 -1.124115 -24.969037 42.382826 8.012406 -8.569970 -22.381703 -1.935030 27.378648 3.333063 4.533538 1.979453 0.000000 0.000000 0.000000 16.318278 -44.441872 13.309500 11.147530 1.221077 -4.020999 3.553155 8.377945 -3.700275 1.309811 -3.358028 0.995543 0.000000 0.000000 0.000000 -3.006247 5.366549 -1.309893 -3.926045 13.381499 4.356059 -4.866068 23.342161 -3.422623 0.000000 0.000000 0.000000 -4.017537 5.522225 -1.790287 0.881700 -11.498584 -0.527858 0.450215 -2.988879 -1.409639 -13.988181 7.230871 -49.658265 -21.072662 -24.940793 -13.940641 0.000000 0.000000 0.000000 -4.261711 4.918143 -1.649345 -2.596772 23.902828 0.913663 3.856883 2.785083 0.648612 10.089698 -34.613097 60.745230 -23.420005 42.912897 19.894174 0.000000 0.000000 0.000000 
0.177912 95.184731 6.241951 0.000000 0.000000 0.000000 14.681331 -48.316000 12.070274 -66.026401 26.805965 38.067650 39.655248 -13.833430 3.302066 6.257942 0.419488 -6.717844 -0.320549 -4.029240 -0.557274 0.000000 0.000000 0.000000 13.354598 -48.400937 12.590574 -31.155126 -0.487568 -25.250364 40.949002 8.045295 -8.191143 -22.016425 -1.783157 27.378337 2.330004 4.547511 1.876353 0.000000 0.000000 0.000000 16.123789 -44.999564 12.931002 11.139758 1.294083 -3.791450 3.487131 8.175144 -3.792454 0.776326 -3.354909 0.833522 0.000000 0.000000 0.000000 -3.232946 5.165789 -1.308553 -3.904946 13.174135 4.044529 -4.529118 23.638048 -3.754112 0.000000 0.000000 0.000000 -4.241545 5.328400 -1.824581 0.801511 -11.263358 -0.267068 1.545410 -2.463355 -1.398064 -13.195795 7.790002 -49.524640 -20.889331 -25.315823 -14.179361 0.000000 0.000000 0.000000 -4.453932 4.740910 -1.650084 -2.751180 23.657644 1.540590 4.047538 2.592304 0.615265 11.255220 -35.146033 61.796335 -23.359134 42.043035 19.705039 0.000000 0.000000 0.000000 
2.434371 95.618019 7.377384 0.000000 0.000000 0.000000 14.641296 -49.988669 11.917679 -65.606078 27.178033 38.374735 41.123538 -13.261296 2.859976 4.945489 0.809962 -6.443835 -0.416445 -4.093574 -0.287201 0.000000 0.000000 0.000000 13.588525 -50.125823 12.666605 -31.443479 0.054970 -26.021084 38.046855 8.157257 -7.568332 -20.025828 -1.265433 28.224640 2.066095 4.488776 1.702399 0.000000 0.000000 0.000000 16.091854 -46.607316 12.737007 11.170852 1.421017 -3.384307 3.617929 7.681996 -3.774586 0.282024 -3.244970 0.852880 0.000000 0.000000 0.000000 -3.247866 4.651877 -1.234350 -3.133711 12.558882 3.790852 -4.754045 23.261698 -4.350251 0.000000 0.000000 0.000000 -4.330877 4.811429 -1.795517 0.667723 -10.993455 0.075378 2.679465 -1.990747 -0.942243 -12.097209 8.559918 -49.504750 -20.069539 -25.361782 -14.513694 0.000000 0.000000 0.000000 -4.470682 4.252880 -1.598989 -3.052251 23.181124 2.250683 3.850808 2.346102 0.297176 11.749061 -35.005922 62.377331 -23.500516 40.748755 19.727190 0.000000 0.000000 0.000000 
5.223608 96.238136 8.809650 0.000000 0.000000 0.000000 14.573863 -52.491899 11.876484 -65.037246 27.918087 38.744057 42.942093 -12.520180 2.299152 3.064254 1.276427 -5.765030 -0.479911 -4.160395 -0.017769 0.000000 0.000000 0.000000 13.686086 -52.660905 12.699857 -31.949064 0.384245 -27.188517 34.443777 8.369044 -6.773823 -16.521025 -0.400311 30.011602 2.183380 4.360640 1.528796 0.000000 0.000000 0.000000 16.219483 -48.945494 12.725190 11.174931 1.569932 -2.825719 3.952854 6.905867 -3.659996 0.024734 -3.168179 1.088961 0.000000 0.000000 0.000000 -3.037388 3.821689 -1.121590 -1.772480 11.605531 3.630435 -5.623140 22.248330 -5.097185 0.000000 0.000000 0.000000 -4.247729 3.963653 -1.727256 0.486282 -10.786329 0.406440 3.719587 -1.526047 -0.147814 -10.990369 9.509247 -49.443094 -18.784287 -25.012981 -14.852142 0.000000 0.000000 0.000000 -4.335949 3.428812 -1.512922 -3.399664 22.513608 2.855047 3.158789 1.900341 -0.115880 11.398962 -34.077091 62.411058 -23.858662 39.272266 19.955777 0.000000 0.000000 0.000000 
8.161194 96.872787 10.487640 0.000000 0.000000 0.000000 14.431360 -55.408824 11.868522 -64.163159 29.002868 38.968285 44.506086 -11.733849 1.668233 0.879845 1.714071 -4.720116 -0.461448 -4.236900 0.211913 0.000000 0.000000 0.000000 13.573814 -55.483399 12.597196 -32.275956 0.293384 -28.496178 30.642052 8.525452 -5.944294 -12.665781 0.309248 32.013284 2.338877 4.100114 1.513811 0.000000 0.000000 0.000000 16.503381 -51.625063 12.819740 11.095239 1.689605 -2.125656 4.475893 5.844877 -3.472149 0.063193 -3.055331 1.360504 0.000000 0.000000 0.000000 -2.622481 2.680198 -1.003509 -0.107504 10.381408 3.588235 -7.025901 20.642647 -5.843593 0.000000 0.000000 0.000000 -3.945795 2.792560 -1.640534 0.285394 -10.731876 0.683946 4.611476 -1.018780 0.735029 -10.186162 10.696161 -49.346618 -17.239983 -24.200334 -15.138279 0.000000 0.000000 0.000000 -4.017233 2.280495 -1.414078 -3.751794 21.705339 3.214719 2.181654 1.265825 -0.371621 10.427155 -32.479353 62.145214 -24.326349 37.677472 20.243077 0.000000 0.000000 0.000000 
10.859818 97.493393 12.044853 0.000000 0.000000 0.000000 14.183945 -58.290002 11.813129 -62.911206 30.277576 38.849156 45.389261 -10.957268 1.033118 -1.261294 2.055660 -3.387026 -0.373921 -4.307519 0.357522 0.000000 0.000000 0.000000 13.265841 -58.039970 12.286630 -31.893555 -0.275063 -29.705667 26.918078 8.381206 -5.212818 -9.625038 0.234077 33.348634 2.357578 3.673489 1.767715 0.000000 0.000000 0.000000 16.769238 -54.256315 12.884261 10.828646 1.743180 -1.302535 5.153934 4.501466 -3.246152 0.068696 -2.956331 1.466753 0.000000 0.000000 0.000000 -2.007323 1.252167 -0.914493 1.539746 8.951277 3.669721 -8.750706 18.607556 -6.447568 0.000000 0.000000 0.000000 -3.401499 1.323216 -1.556637 0.079998 -10.839451 0.845365 5.177613 -0.624884 1.279256 -9.851423 12.063880 -49.306125 -15.636048 -22.938425 -15.314792 0.000000 0.000000 0.000000 -3.554205 0.841345 -1.311463 -4.098571 20.871520 3.251962 1.258397 0.543772 -0.446169 9.129418 -30.401152 61.903364 -24.783541 36.014583 20.430078 0.000000 0.000000 0.000000 
